# File created by Blade
# Date/Time:  Mon Sep 22 16:45:27 2014
# Frame Rate: 120.000 fps
#------------------------------------------------------
:FULLY-SPECIFIED
:DEGREES
1890
root 2.764565 36.354130 2.348562 -22.614826 15.648424 9.739799
RightUpLeg 21.124278 -11.994944 -4.466655
RightLeg 24.079652 -0.000000 -0.000000
RightFoot -29.903788 -24.988680 13.970060
RightToeBase 3.339155 -0.000000 -0.000000
LeftUpLeg -86.928667 27.453297 -19.151510
LeftLeg 112.036214 -0.000000 -0.000000
LeftFoot 17.711173 11.391874 -40.903383
LeftToeBase -3.939078 -0.000000 0.000000
Spine 33.866798 5.865195 7.561521
RightShoulder 2.909271 -12.999509 -18.212473
RightArm 10.407615 34.755540 51.776474
RightForeArm 13.482313 -0.000000 108.173096
RightHand 5.266127 0.000000 -36.628880
RightHandThumb1 -24.326973 -0.000000 -32.862282
LeftShoulder -30.068203 32.334814 -7.458019
LeftArm 24.704306 -17.340198 -75.527065
LeftForeArm 31.714204 -0.000000 21.285370
LeftHand -15.215337 0.000000 -16.931124
LeftHandThumb1 -26.253704 0.000000 33.147579
Head 9.312809 -12.961723 -8.166385
1891
root 2.762363 36.359449 2.345204 -22.451555 15.615509 9.717608
RightUpLeg 20.981516 -12.130109 -4.500481
RightLeg 24.030171 -0.000000 -0.000000
RightFoot -29.794045 -24.823623 13.875804
RightToeBase 3.258141 -0.000000 -0.000000
LeftUpLeg -86.677350 27.640939 -18.971231
LeftLeg 112.009518 -0.000000 -0.000000
LeftFoot 17.755149 11.629607 -41.119606
LeftToeBase -3.669815 -0.000000 0.000000
Spine 33.586524 5.797587 7.570847
RightShoulder 2.859044 -12.981295 -18.160238
RightArm 10.474635 34.489909 51.682592
RightForeArm 13.373495 0.000000 108.198920
RightHand 5.277498 -0.000000 -36.581557
RightHandThumb1 -24.326973 -0.000000 -32.862282
LeftShoulder -29.972312 32.316172 -7.334873
LeftArm 24.696323 -17.264618 -75.525634
LeftForeArm 31.619148 -0.000000 21.384418
LeftHand -15.219311 -0.000000 -16.991711
LeftHandThumb1 -26.253704 0.000000 33.147579
Head 9.315949 -12.828677 -8.162147
1892
root 2.759243 36.363483 2.345369 -22.310066 15.578419 9.683135
RightUpLeg 20.870790 -12.299430 -4.547155
RightLeg 23.974940 -0.000000 -0.000000
RightFoot -29.687280 -24.613741 13.777935
RightToeBase 3.210112 -0.000000 -0.000000
LeftUpLeg -86.421401 27.855778 -18.753495
LeftLeg 112.026318 -0.000000 -0.000000
LeftFoot 17.921315 11.634428 -40.974395
LeftToeBase -3.429829 -0.000000 0.000000
Spine 33.332666 5.699172 7.583357
RightShoulder 2.824700 -12.985421 -18.115525
RightArm 10.598470 34.264263 51.619914
RightForeArm 13.306089 -0.000000 108.235557
RightHand 5.248412 -0.000000 -36.601524
RightHandThumb1 -24.326973 -0.000000 -32.862282
LeftShoulder -29.882110 32.267281 -7.211989
LeftArm 24.676415 -17.194267 -75.513772
LeftForeArm 31.518211 -0.000000 21.391129
LeftHand -15.070105 -0.000000 -16.733262
LeftHandThumb1 -26.253704 0.000000 33.147579
Head 9.249182 -12.709132 -8.160029
1893
root 2.755275 36.367330 2.345075 -22.176694 15.553325 9.658193
RightUpLeg 20.765802 -12.422044 -4.573778
RightLeg 23.930014 -0.000000 -0.000000
RightFoot -29.592956 -24.432383 13.698858
RightToeBase 3.151012 -0.000000 -0.000000
LeftUpLeg -86.176776 28.079312 -18.565508
LeftLeg 112.065661 -0.000000 -0.000000
LeftFoot 18.019082 11.679777 -40.915209
LeftToeBase -3.229471 -0.000000 0.000000
Spine 33.104928 5.588898 7.568729
RightShoulder 2.782819 -12.963572 -18.040259
RightArm 10.697290 34.014139 51.504586
RightForeArm 13.218770 -0.000000 108.276708
RightHand 5.169370 -0.000000 -36.638327
RightHandThumb1 -24.326973 -0.000000 -32.862282
LeftShoulder -29.797086 32.209677 -7.102130
LeftArm 24.651943 -17.154751 -75.501094
LeftForeArm 31.475743 -0.000000 21.455848
LeftHand -15.079292 -0.000000 -16.797628
LeftHandThumb1 -26.253704 0.000000 33.147579
Head 9.141683 -12.563205 -8.127397
1894
root 2.750325 36.370570 2.343717 -22.078746 15.519803 9.639048
RightUpLeg 20.693611 -12.557321 -4.628301
RightLeg 23.895604 -0.000000 -0.000000
RightFoot -29.783345 -23.993995 13.928633
RightToeBase 3.659079 -0.000000 -0.000000
LeftUpLeg -85.916223 28.328352 -18.392485
LeftLeg 112.101453 -0.000000 -0.000000
LeftFoot 18.059711 11.803148 -40.847848
LeftToeBase -3.301302 -0.000000 0.000000
Spine 32.941665 5.513876 7.558296
RightShoulder 2.723702 -12.946419 -17.974559
RightArm 10.811275 33.837345 51.467982
RightForeArm 13.161239 -0.000000 108.306288
RightHand 5.165893 -0.000000 -36.491221
RightHandThumb1 -24.326973 -0.000000 -32.862282
LeftShoulder -29.684673 32.167114 -6.963352
LeftArm 24.694430 -17.126945 -75.533780
LeftForeArm 31.444597 -0.000000 21.456694
LeftHand -15.077459 -0.000000 -16.719413
LeftHandThumb1 -26.253704 0.000000 33.147579
Head 8.999288 -12.470239 -8.063153
1895
root 2.744725 36.372365 2.341966 -21.967270 15.480865 9.597995
RightUpLeg 20.605391 -12.619392 -4.602876
RightLeg 23.829818 -0.000000 -0.000000
RightFoot -29.787076 -23.793486 13.972204
RightToeBase 3.764838 -0.000000 -0.000000
LeftUpLeg -85.680523 28.566589 -18.192659
LeftLeg 112.151797 -0.000000 -0.000000
LeftFoot 18.061218 11.926571 -40.886104
LeftToeBase -3.334688 -0.000000 0.000000
Spine 32.754294 5.417332 7.574274
RightShoulder 2.692917 -12.920689 -17.949468
RightArm 10.908722 33.687913 51.476450
RightForeArm 13.096057 -0.000000 108.342293
RightHand 5.154777 -0.000000 -36.316951
RightHandThumb1 -24.326973 -0.000000 -32.862282
LeftShoulder -29.601516 32.176023 -6.863704
LeftArm 24.793933 -17.135134 -75.621128
LeftForeArm 31.402587 -0.000000 21.447927
LeftHand -15.092757 0.000000 -16.810380
LeftHandThumb1 -26.253704 0.000000 33.147579
Head 8.841667 -12.323037 -8.028851
1896
root 2.740293 36.374237 2.342618 -21.863653 15.453315 9.562844
RightUpLeg 20.537769 -12.669313 -4.569881
RightLeg 23.742698 -0.000000 -0.000000
RightFoot -29.685194 -23.774598 13.827134
RightToeBase 3.704865 -0.000000 -0.000000
LeftUpLeg -85.438906 28.803223 -17.976463
LeftLeg 112.204780 -0.000000 -0.000000
LeftFoot 18.074171 12.076284 -40.958052
LeftToeBase -3.043754 -0.000000 0.000000
Spine 32.573494 5.286635 7.576211
RightShoulder 2.652004 -12.915019 -17.902298
RightArm 11.074013 33.543908 51.479489
RightForeArm 13.029410 0.000000 108.369955
RightHand 5.221436 0.000000 -36.358697
RightHandThumb1 -24.326973 -0.000000 -32.862282
LeftShoulder -29.476448 32.159651 -6.782870
LeftArm 24.785913 -17.063045 -75.575397
LeftForeArm 31.337181 -0.000000 21.477264
LeftHand -15.068266 -0.000000 -16.589505
LeftHandThumb1 -26.253704 0.000000 33.147579
Head 8.673396 -12.197092 -8.027635
1897
root 2.736890 36.376233 2.342887 -21.781907 15.426498 9.533799
RightUpLeg 20.485792 -12.661403 -4.517380
RightLeg 23.661602 -0.000000 -0.000000
RightFoot -29.618099 -23.758933 13.767397
RightToeBase 3.656123 -0.000000 -0.000000
LeftUpLeg -85.155828 29.035125 -17.713477
LeftLeg 112.257920 -0.000000 -0.000000
LeftFoot 18.200059 12.126634 -40.781364
LeftToeBase -3.190420 -0.000000 0.000000
Spine 32.435236 5.129382 7.557441
RightShoulder 2.635472 -12.926088 -17.853305
RightArm 11.287517 33.439433 51.495363
RightForeArm 12.976048 0.000000 108.392660
RightHand 5.194862 -0.000000 -36.368559
RightHandThumb1 -24.326973 -0.000000 -32.862282
LeftShoulder -29.405748 32.153375 -6.729793
LeftArm 24.828674 -17.002964 -75.574321
LeftForeArm 31.198250 -0.000000 21.508945
LeftHand -15.216184 -0.000000 -16.746883
LeftHandThumb1 -26.253704 0.000000 33.147579
Head 8.490734 -12.032274 -8.038910
1898
root 2.732881 36.378080 2.344658 -21.715361 15.403864 9.502348
RightUpLeg 20.457342 -12.684968 -4.486884
RightLeg 23.578474 -0.000000 -0.000000
RightFoot -29.563452 -23.667359 13.711565
RightToeBase 3.656829 -0.000000 -0.000000
LeftUpLeg -84.855713 29.255032 -17.404254
LeftLeg 112.313513 -0.000000 -0.000000
LeftFoot 18.213991 12.275346 -40.721633
LeftToeBase -2.847975 -0.000000 0.000000
Spine 32.317253 4.980324 7.533299
RightShoulder 2.587519 -12.928033 -17.769492
RightArm 11.483757 33.326288 51.480705
RightForeArm 12.979288 -0.000000 108.414168
RightHand 5.150816 -0.000000 -36.224938
RightHandThumb1 -24.326973 -0.000000 -32.862282
LeftShoulder -29.319087 32.156404 -6.657531
LeftArm 24.883021 -16.965480 -75.593862
LeftForeArm 31.249900 -0.000000 21.501148
LeftHand -15.199029 -0.000000 -16.455121
LeftHandThumb1 -26.253704 0.000000 33.147579
Head 8.292349 -11.878187 -8.039155
1899
root 2.732764 36.379245 2.344878 -21.634273 15.358062 9.528590
RightUpLeg 20.433676 -12.707881 -4.542845
RightLeg 23.499389 -0.000000 -0.000000
RightFoot -29.199491 -23.756839 13.187373
RightToeBase 3.019232 -0.000000 -0.000000
LeftUpLeg -84.524030 29.492370 -17.034672
LeftLeg 112.371372 -0.000000 -0.000000
LeftFoot 18.446390 12.350846 -40.602107
LeftToeBase -3.036003 -0.000000 0.000000
Spine 32.200322 4.854995 7.446694
RightShoulder 2.546189 -12.975703 -17.678101
RightArm 11.776945 33.237954 51.503894
RightForeArm 12.952444 -0.000000 108.418149
RightHand 5.083310 -0.000000 -36.268896
RightHandThumb1 -24.326973 -0.000000 -32.862282
LeftShoulder -29.207328 32.167989 -6.563552
LeftArm 24.909692 -16.940832 -75.626558
LeftForeArm 31.248230 -0.000000 21.470730
LeftHand -15.222765 -0.000000 -16.323027
LeftHandThumb1 -26.253704 0.000000 33.147579
Head 8.119471 -11.702343 -8.062120
1900
root 2.734665 36.382640 2.356617 -21.604013 15.338731 9.550869
RightUpLeg 20.499766 -12.755447 -4.627250
RightLeg 23.394419 -0.000000 -0.000000
RightFoot -29.082745 -23.585665 13.001819
RightToeBase 2.841566 -0.000000 -0.000000
LeftUpLeg -84.088245 29.702966 -16.529412
LeftLeg 112.464571 -0.000000 -0.000000
LeftFoot 18.553698 12.531102 -40.650413
LeftToeBase -2.912709 -0.000000 0.000000
Spine 32.083379 4.645616 7.314723
RightShoulder 2.557998 -13.068534 -17.612350
RightArm 12.220528 33.171957 51.689344
RightForeArm 12.876505 -0.000000 108.363225
RightHand 5.066323 -0.000000 -36.268604
RightHandThumb1 -24.326973 -0.000000 -32.862282
LeftShoulder -29.169915 32.221602 -6.523576
LeftArm 24.955329 -16.862306 -75.611660
LeftForeArm 31.103484 0.000000 21.386298
LeftHand -15.232351 0.000000 -16.115925
LeftHandThumb1 -26.253704 0.000000 33.147579
Head 8.038345 -11.473090 -8.118649
1901
root 2.730148 36.386056 2.364826 -21.563381 15.225700 9.583808
RightUpLeg 20.495951 -12.616810 -4.604026
RightLeg 23.336123 -0.000000 -0.000000
RightFoot -29.033841 -23.470684 12.894319
RightToeBase 2.853710 -0.000000 -0.000000
LeftUpLeg -83.595472 29.953252 -15.748889
LeftLeg 112.535252 -0.000000 -0.000000
LeftFoot 18.918778 12.731703 -40.973362
LeftToeBase -2.625261 -0.000000 0.000000
Spine 32.001001 4.527330 7.185212
RightShoulder 2.537988 -13.075565 -17.500905
RightArm 12.604095 33.021075 51.781556
RightForeArm 12.797865 -0.000000 108.288325
RightHand 5.064973 -0.000000 -36.262632
RightHandThumb1 -24.326973 -0.000000 -32.862282
LeftShoulder -29.085131 32.269119 -6.442486
LeftArm 24.962713 -16.895789 -75.664178
LeftForeArm 31.040798 -0.000000 21.321309
LeftHand -15.188092 -0.000000 -16.414081
LeftHandThumb1 -26.253704 0.000000 33.147579
Head 7.904375 -11.261818 -8.157405
